<mxfile host="app.diagrams.net" modified="2023-01-27T08:25:06.428Z" agent="5.0 (Windows NT 10.0; Win64; x64) AppleWebKit/537.36 (KHTML, like Gecko) Chrome/109.0.0.0 Safari/537.36 Edg/109.0.1518.69" etag="lfn4pTQyrHiDbYrbmc96" version="20.8.10" type="github">
  <diagram name="Page-1" id="tZd6RG-dwENUQEmpJ7Up">
    <mxGraphModel dx="2625" dy="1453" grid="1" gridSize="10" guides="1" tooltips="1" connect="1" arrows="1" fold="1" page="1" pageScale="1" pageWidth="3300" pageHeight="4681" math="0" shadow="0">
      <root>
        <mxCell id="0" />
        <mxCell id="1" parent="0" />
        <mxCell id="xUQA2yGWhcHe7VAFFT-k-3" style="edgeStyle=orthogonalEdgeStyle;rounded=0;orthogonalLoop=1;jettySize=auto;html=1;entryX=0.5;entryY=0;entryDx=0;entryDy=0;" parent="1" source="hhh4anzlKlJpJVtJcIJY-1" target="xUQA2yGWhcHe7VAFFT-k-1" edge="1">
          <mxGeometry relative="1" as="geometry">
            <Array as="points">
              <mxPoint x="790" y="40" />
            </Array>
          </mxGeometry>
        </mxCell>
        <mxCell id="xUQA2yGWhcHe7VAFFT-k-5" value="1" style="edgeLabel;html=1;align=center;verticalAlign=middle;resizable=0;points=[];" parent="xUQA2yGWhcHe7VAFFT-k-3" vertex="1" connectable="0">
          <mxGeometry x="-0.1263" y="-4" relative="1" as="geometry">
            <mxPoint as="offset" />
          </mxGeometry>
        </mxCell>
        <mxCell id="xUQA2yGWhcHe7VAFFT-k-4" value="2" style="edgeStyle=orthogonalEdgeStyle;rounded=0;orthogonalLoop=1;jettySize=auto;html=1;entryX=0.5;entryY=0;entryDx=0;entryDy=0;" parent="1" source="hhh4anzlKlJpJVtJcIJY-1" target="xUQA2yGWhcHe7VAFFT-k-2" edge="1">
          <mxGeometry relative="1" as="geometry">
            <Array as="points">
              <mxPoint x="940" y="70" />
            </Array>
          </mxGeometry>
        </mxCell>
        <mxCell id="xUQA2yGWhcHe7VAFFT-k-9" style="edgeStyle=orthogonalEdgeStyle;rounded=0;orthogonalLoop=1;jettySize=auto;html=1;entryX=0.5;entryY=0;entryDx=0;entryDy=0;" parent="1" source="hhh4anzlKlJpJVtJcIJY-1" target="xUQA2yGWhcHe7VAFFT-k-8" edge="1">
          <mxGeometry relative="1" as="geometry">
            <Array as="points">
              <mxPoint x="1240" y="90" />
            </Array>
          </mxGeometry>
        </mxCell>
        <mxCell id="xUQA2yGWhcHe7VAFFT-k-10" value="3" style="edgeLabel;html=1;align=center;verticalAlign=middle;resizable=0;points=[];" parent="xUQA2yGWhcHe7VAFFT-k-9" vertex="1" connectable="0">
          <mxGeometry x="-0.2467" relative="1" as="geometry">
            <mxPoint as="offset" />
          </mxGeometry>
        </mxCell>
        <mxCell id="xUQA2yGWhcHe7VAFFT-k-12" value="" style="edgeStyle=orthogonalEdgeStyle;rounded=0;orthogonalLoop=1;jettySize=auto;html=1;" parent="1" source="hhh4anzlKlJpJVtJcIJY-1" target="xUQA2yGWhcHe7VAFFT-k-11" edge="1">
          <mxGeometry relative="1" as="geometry" />
        </mxCell>
        <mxCell id="xUQA2yGWhcHe7VAFFT-k-17" value="4" style="edgeLabel;html=1;align=center;verticalAlign=middle;resizable=0;points=[];" parent="xUQA2yGWhcHe7VAFFT-k-12" vertex="1" connectable="0">
          <mxGeometry x="-0.2343" relative="1" as="geometry">
            <mxPoint as="offset" />
          </mxGeometry>
        </mxCell>
        <mxCell id="xUQA2yGWhcHe7VAFFT-k-14" value="" style="edgeStyle=orthogonalEdgeStyle;rounded=0;orthogonalLoop=1;jettySize=auto;html=1;" parent="1" source="hhh4anzlKlJpJVtJcIJY-1" target="xUQA2yGWhcHe7VAFFT-k-13" edge="1">
          <mxGeometry relative="1" as="geometry">
            <Array as="points">
              <mxPoint x="2110" y="60" />
            </Array>
          </mxGeometry>
        </mxCell>
        <mxCell id="xUQA2yGWhcHe7VAFFT-k-18" value="5" style="edgeLabel;html=1;align=center;verticalAlign=middle;resizable=0;points=[];" parent="xUQA2yGWhcHe7VAFFT-k-14" vertex="1" connectable="0">
          <mxGeometry x="-0.1791" y="-3" relative="1" as="geometry">
            <mxPoint y="-3" as="offset" />
          </mxGeometry>
        </mxCell>
        <mxCell id="xUQA2yGWhcHe7VAFFT-k-16" value="" style="edgeStyle=orthogonalEdgeStyle;rounded=0;orthogonalLoop=1;jettySize=auto;html=1;" parent="1" source="hhh4anzlKlJpJVtJcIJY-1" target="xUQA2yGWhcHe7VAFFT-k-15" edge="1">
          <mxGeometry relative="1" as="geometry">
            <Array as="points">
              <mxPoint x="2260" y="40" />
            </Array>
          </mxGeometry>
        </mxCell>
        <mxCell id="xUQA2yGWhcHe7VAFFT-k-19" value="6" style="edgeLabel;html=1;align=center;verticalAlign=middle;resizable=0;points=[];" parent="xUQA2yGWhcHe7VAFFT-k-16" vertex="1" connectable="0">
          <mxGeometry x="-0.1907" y="1" relative="1" as="geometry">
            <mxPoint as="offset" />
          </mxGeometry>
        </mxCell>
        <mxCell id="hhh4anzlKlJpJVtJcIJY-1" value="000 | 111" style="rounded=0;whiteSpace=wrap;html=1;" parent="1" vertex="1">
          <mxGeometry x="1370" y="40" width="120" height="60" as="geometry" />
        </mxCell>
        <mxCell id="xUQA2yGWhcHe7VAFFT-k-1" value="00 | 111 0" style="rounded=0;whiteSpace=wrap;html=1;fillColor=#f8cecc;strokeColor=#b85450;" parent="1" vertex="1">
          <mxGeometry x="730" y="180" width="120" height="60" as="geometry" />
        </mxCell>
        <mxCell id="xUQA2yGWhcHe7VAFFT-k-2" value="0 | 111 00" style="rounded=0;whiteSpace=wrap;html=1;fillColor=#f8cecc;strokeColor=#b85450;" parent="1" vertex="1">
          <mxGeometry x="880" y="180" width="120" height="60" as="geometry" />
        </mxCell>
        <mxCell id="xUQA2yGWhcHe7VAFFT-k-6" value="Fail&lt;br&gt;" style="rounded=0;whiteSpace=wrap;html=1;fillColor=#f8cecc;strokeColor=#b85450;" parent="1" vertex="1">
          <mxGeometry x="2640" y="20" width="120" height="60" as="geometry" />
        </mxCell>
        <mxCell id="xUQA2yGWhcHe7VAFFT-k-7" value="TrÃ¹ng&lt;br&gt;" style="rounded=0;whiteSpace=wrap;html=1;fillColor=#ffe6cc;strokeColor=#d79b00;" parent="1" vertex="1">
          <mxGeometry x="2640" y="100" width="120" height="60" as="geometry" />
        </mxCell>
        <mxCell id="xUQA2yGWhcHe7VAFFT-k-21" style="edgeStyle=orthogonalEdgeStyle;rounded=0;orthogonalLoop=1;jettySize=auto;html=1;entryX=0.5;entryY=0;entryDx=0;entryDy=0;" parent="1" source="xUQA2yGWhcHe7VAFFT-k-8" target="xUQA2yGWhcHe7VAFFT-k-20" edge="1">
          <mxGeometry relative="1" as="geometry" />
        </mxCell>
        <mxCell id="xUQA2yGWhcHe7VAFFT-k-22" value="4" style="edgeLabel;html=1;align=center;verticalAlign=middle;resizable=0;points=[];" parent="xUQA2yGWhcHe7VAFFT-k-21" vertex="1" connectable="0">
          <mxGeometry x="-0.462" y="-1" relative="1" as="geometry">
            <mxPoint as="offset" />
          </mxGeometry>
        </mxCell>
        <mxCell id="xUQA2yGWhcHe7VAFFT-k-24" style="edgeStyle=orthogonalEdgeStyle;rounded=0;orthogonalLoop=1;jettySize=auto;html=1;entryX=0.5;entryY=0;entryDx=0;entryDy=0;" parent="1" source="xUQA2yGWhcHe7VAFFT-k-8" target="xUQA2yGWhcHe7VAFFT-k-23" edge="1">
          <mxGeometry relative="1" as="geometry" />
        </mxCell>
        <mxCell id="xUQA2yGWhcHe7VAFFT-k-25" value="5" style="edgeLabel;html=1;align=center;verticalAlign=middle;resizable=0;points=[];" parent="xUQA2yGWhcHe7VAFFT-k-24" vertex="1" connectable="0">
          <mxGeometry x="-0.1772" y="-2" relative="1" as="geometry">
            <mxPoint as="offset" />
          </mxGeometry>
        </mxCell>
        <mxCell id="xUQA2yGWhcHe7VAFFT-k-28" style="edgeStyle=orthogonalEdgeStyle;rounded=0;orthogonalLoop=1;jettySize=auto;html=1;" parent="1" source="xUQA2yGWhcHe7VAFFT-k-8" target="xUQA2yGWhcHe7VAFFT-k-27" edge="1">
          <mxGeometry relative="1" as="geometry" />
        </mxCell>
        <mxCell id="xUQA2yGWhcHe7VAFFT-k-29" value="6" style="edgeLabel;html=1;align=center;verticalAlign=middle;resizable=0;points=[];" parent="xUQA2yGWhcHe7VAFFT-k-28" vertex="1" connectable="0">
          <mxGeometry x="-0.2545" y="3" relative="1" as="geometry">
            <mxPoint as="offset" />
          </mxGeometry>
        </mxCell>
        <mxCell id="xUQA2yGWhcHe7VAFFT-k-8" value="| 111 000&amp;nbsp;" style="rounded=0;whiteSpace=wrap;html=1;" parent="1" vertex="1">
          <mxGeometry x="1180" y="180" width="120" height="60" as="geometry" />
        </mxCell>
        <mxCell id="xUQA2yGWhcHe7VAFFT-k-34" style="edgeStyle=orthogonalEdgeStyle;rounded=0;orthogonalLoop=1;jettySize=auto;html=1;entryX=0.5;entryY=0;entryDx=0;entryDy=0;" parent="1" source="xUQA2yGWhcHe7VAFFT-k-11" target="xUQA2yGWhcHe7VAFFT-k-30" edge="1">
          <mxGeometry relative="1" as="geometry">
            <Array as="points">
              <mxPoint x="1540" y="210" />
            </Array>
          </mxGeometry>
        </mxCell>
        <mxCell id="xUQA2yGWhcHe7VAFFT-k-35" value="1" style="edgeLabel;html=1;align=center;verticalAlign=middle;resizable=0;points=[];" parent="xUQA2yGWhcHe7VAFFT-k-34" vertex="1" connectable="0">
          <mxGeometry x="-0.1884" y="1" relative="1" as="geometry">
            <mxPoint as="offset" />
          </mxGeometry>
        </mxCell>
        <mxCell id="xUQA2yGWhcHe7VAFFT-k-37" style="edgeStyle=orthogonalEdgeStyle;rounded=0;orthogonalLoop=1;jettySize=auto;html=1;" parent="1" source="xUQA2yGWhcHe7VAFFT-k-11" target="xUQA2yGWhcHe7VAFFT-k-33" edge="1">
          <mxGeometry relative="1" as="geometry" />
        </mxCell>
        <mxCell id="xUQA2yGWhcHe7VAFFT-k-38" value="2" style="edgeLabel;html=1;align=center;verticalAlign=middle;resizable=0;points=[];" parent="xUQA2yGWhcHe7VAFFT-k-37" vertex="1" connectable="0">
          <mxGeometry x="-0.3956" relative="1" as="geometry">
            <mxPoint as="offset" />
          </mxGeometry>
        </mxCell>
        <mxCell id="xUQA2yGWhcHe7VAFFT-k-41" style="edgeStyle=orthogonalEdgeStyle;rounded=0;orthogonalLoop=1;jettySize=auto;html=1;entryX=0.5;entryY=0;entryDx=0;entryDy=0;" parent="1" source="xUQA2yGWhcHe7VAFFT-k-11" target="xUQA2yGWhcHe7VAFFT-k-39" edge="1">
          <mxGeometry relative="1" as="geometry">
            <Array as="points">
              <mxPoint x="1830" y="230" />
            </Array>
          </mxGeometry>
        </mxCell>
        <mxCell id="xUQA2yGWhcHe7VAFFT-k-42" value="3" style="edgeLabel;html=1;align=center;verticalAlign=middle;resizable=0;points=[];" parent="xUQA2yGWhcHe7VAFFT-k-41" vertex="1" connectable="0">
          <mxGeometry x="-0.4361" y="1" relative="1" as="geometry">
            <mxPoint as="offset" />
          </mxGeometry>
        </mxCell>
        <mxCell id="xUQA2yGWhcHe7VAFFT-k-44" style="edgeStyle=orthogonalEdgeStyle;rounded=0;orthogonalLoop=1;jettySize=auto;html=1;entryX=0.5;entryY=0;entryDx=0;entryDy=0;" parent="1" source="xUQA2yGWhcHe7VAFFT-k-11" target="xUQA2yGWhcHe7VAFFT-k-43" edge="1">
          <mxGeometry relative="1" as="geometry" />
        </mxCell>
        <mxCell id="xUQA2yGWhcHe7VAFFT-k-45" value="4" style="edgeLabel;html=1;align=center;verticalAlign=middle;resizable=0;points=[];" parent="xUQA2yGWhcHe7VAFFT-k-44" vertex="1" connectable="0">
          <mxGeometry x="-0.2288" y="2" relative="1" as="geometry">
            <mxPoint as="offset" />
          </mxGeometry>
        </mxCell>
        <mxCell id="xUQA2yGWhcHe7VAFFT-k-11" value="000 1 | 11" style="rounded=0;whiteSpace=wrap;html=1;" parent="1" vertex="1">
          <mxGeometry x="1600" y="180" width="120" height="60" as="geometry" />
        </mxCell>
        <mxCell id="xUQA2yGWhcHe7VAFFT-k-13" value="000 11 | 1" style="rounded=0;whiteSpace=wrap;html=1;" parent="1" vertex="1">
          <mxGeometry x="2045.71" y="180" width="120" height="60" as="geometry" />
        </mxCell>
        <mxCell id="xUQA2yGWhcHe7VAFFT-k-15" value="000 111 |&amp;nbsp;" style="rounded=0;whiteSpace=wrap;html=1;" parent="1" vertex="1">
          <mxGeometry x="2205.71" y="180" width="120" height="60" as="geometry" />
        </mxCell>
        <mxCell id="xUQA2yGWhcHe7VAFFT-k-20" value="1 | 11 000&lt;br&gt;&amp;nbsp;" style="rounded=0;whiteSpace=wrap;html=1;" parent="1" vertex="1">
          <mxGeometry x="1000" y="340" width="120" height="60" as="geometry" />
        </mxCell>
        <mxCell id="xUQA2yGWhcHe7VAFFT-k-23" value="11 | 1 000" style="rounded=0;whiteSpace=wrap;html=1;" parent="1" vertex="1">
          <mxGeometry x="1180" y="340" width="120" height="60" as="geometry" />
        </mxCell>
        <mxCell id="xUQA2yGWhcHe7VAFFT-k-27" value="111 | 000" style="rounded=0;whiteSpace=wrap;html=1;fillColor=#d5e8d4;strokeColor=#82b366;" parent="1" vertex="1">
          <mxGeometry x="1340" y="340" width="120" height="60" as="geometry" />
        </mxCell>
        <mxCell id="xUQA2yGWhcHe7VAFFT-k-30" value="00 1 | 11 0" style="rounded=0;whiteSpace=wrap;html=1;fillColor=#f8cecc;strokeColor=#b85450;" parent="1" vertex="1">
          <mxGeometry x="1480" y="340" width="120" height="60" as="geometry" />
        </mxCell>
        <mxCell id="xUQA2yGWhcHe7VAFFT-k-33" value="0 1 | 11 00" style="rounded=0;whiteSpace=wrap;html=1;" parent="1" vertex="1">
          <mxGeometry x="1620" y="340" width="120" height="60" as="geometry" />
        </mxCell>
        <mxCell id="xUQA2yGWhcHe7VAFFT-k-39" value="1 | 11 000" style="rounded=0;whiteSpace=wrap;html=1;" parent="1" vertex="1">
          <mxGeometry x="1770" y="340" width="120" height="60" as="geometry" />
        </mxCell>
        <mxCell id="xUQA2yGWhcHe7VAFFT-k-43" value="000 11 | 1" style="rounded=0;whiteSpace=wrap;html=1;" parent="1" vertex="1">
          <mxGeometry x="1920" y="340" width="120" height="60" as="geometry" />
        </mxCell>
        <mxCell id="xUQA2yGWhcHe7VAFFT-k-46" value="000 111 |" style="rounded=0;whiteSpace=wrap;html=1;" parent="1" vertex="1">
          <mxGeometry x="2060" y="340" width="120" height="60" as="geometry" />
        </mxCell>
      </root>
    </mxGraphModel>
  </diagram>
</mxfile>
